<?xml version="1.0" encoding="UTF-8" standalone="no"?>
<svg width="84px" height="66px" viewBox="0 0 84 66" version="1.1" xmlns="http://www.w3.org/2000/svg" xmlns:xlink="http://www.w3.org/1999/xlink" xmlns:sketch="http://www.bohemiancoding.com/sketch/ns">
    <!-- Generator: Sketch 3.5 (25232) - http://www.bohemiancoding.com/sketch -->
    <title>Group 14</title>
    <desc>Created with Sketch.</desc>
    <defs></defs>
    <g id="Page-1" stroke="none" stroke-width="1" fill="none" fill-rule="evenodd" sketch:type="MSPage">
        <g id="Desktop" sketch:type="MSArtboardGroup" transform="translate(-147.000000, -1085.000000)" stroke="#4095BF" stroke-width="4" stroke-linecap="round" stroke-linejoin="round">
            <g id="Group-15" sketch:type="MSLayerGroup" transform="translate(0.000000, 934.000000)">
                <g id="Group-14" transform="translate(149.000000, 152.640507)" sketch:type="MSShapeGroup">
                    <path d="M40,61.9709915 L40,51.8660263" id="Stroke-11"></path>
                    <path d="M16.8696364,58.4029283 L21.3949307,49.2133541" id="Stroke-13"></path>
                    <path d="M63.7613899,58.4029283 L59.2360956,49.2133541" id="Stroke-15"></path>
                    <path d="M40.3155132,0.502963687 C30.5485851,0.502963687 22.6310805,7.85462308 22.6310805,16.9235321 C22.6310805,18.1016522 22.7674347,19.2494574 23.0215784,20.3574371 C27.8855176,23.6207464 33.8562941,25.549606 40.3155132,25.549606 C46.7747322,25.549606 52.7455088,23.6207464 57.6094479,20.3574371 C57.8635916,19.2494574 57.9999458,18.1016522 57.9999458,16.9235321 C57.9999458,7.85462308 50.0824413,0.502963687 40.3155132,0.502963687 L40.3155132,0.502963687 Z" id="Stroke-17"></path>
                    <path d="M22.8992437,19.9955605 C14.5028992,22.4362068 6.92403952,26.5941027 0.638944153,32.0258187 C11.0409114,41.0150769 24.9848865,46.5163388 40.3154491,46.5163388 C55.6460118,46.5163388 69.5899869,41.0150769 79.9919541,32.0258187 C73.7068588,26.5941027 66.1279991,22.4362068 57.7316545,19.9955605" id="Stroke-19"></path>
                </g>
            </g>
        </g>
    </g>
</svg>