<?xml version="1.0" encoding="UTF-8" standalone="no"?>
<svg width="109px" height="82px" viewBox="0 0 109 82" version="1.1" xmlns="http://www.w3.org/2000/svg" xmlns:xlink="http://www.w3.org/1999/xlink" xmlns:sketch="http://www.bohemiancoding.com/sketch/ns">
    <!-- Generator: Sketch 3.5 (25232) - http://www.bohemiancoding.com/sketch -->
    <title>Group 24</title>
    <desc>Created with Sketch.</desc>
    <defs></defs>
    <g id="Page-1" stroke="none" stroke-width="1" fill="none" fill-rule="evenodd" sketch:type="MSPage">
        <g id="Desktop" sketch:type="MSArtboardGroup" transform="translate(-779.000000, -660.000000)" fill="#EE6F36">
            <g id="Group-24" sketch:type="MSLayerGroup" transform="translate(779.000000, 660.000000)">
                <path d="M108.547964,54.0886323 C95.2274513,54.8426903 93.7146262,63.546241 93.7146262,63.546241 C93.713032,64.7410961 92.7876422,65.7279077 91.5952363,65.8068207 C72.7152109,67.0598642 43.2390334,67.0279802 25.2836008,65.7430526 C24.0943832,65.6577628 23.1785581,64.669357 23.1801522,63.4768932 L23.2200053,45.5580526 C41.7022964,55.6063135 58.4605407,61.8938497 58.4605407,61.8938497 C58.4605407,61.8938497 76.6208184,54.9375454 93.6046315,42.7809512 C102.187403,36.6376903 108.583035,27.9564584 108.597382,17.401241 L108.604555,11.9825454 C108.612526,6.40124103 104.305199,1.82827001 98.5854766,1.34363233 C78.4660187,-0.360570568 38.7858438,-0.494483611 18.4854526,1.23442943 C9.52088784,1.99805262 8.39224699,9.86384972 11.4378238,14.1530526 C14.8994673,19.0281251 23.1833404,23.1021106 23.1833404,23.1021106 L23.2423231,17.8834874 C23.2439172,16.6806613 24.1804659,15.6898642 25.3816395,15.6213135 C43.8726983,14.5763135 73.2564165,14.6153715 91.6390748,15.7081975 C92.8410454,15.7799367 93.7775941,16.772328 93.776,17.9767483 L93.776,17.9767483 C93.7696235,22.9004439 90.5255781,26.6229077 86.7578625,29.7929802 C76.6885688,38.2629802 63.2747997,44.1168932 58.4836555,46.0371106 C50.0738465,42.654212 25.2134593,33.0411686 2.6231068,14.5021831 C-2.25172898,21.4752265 -0.337184253,32.3341396 8.41057943,36.7979077 L8.35159679,69.3858062 C8.34442322,74.8579077 12.5919706,79.4268932 18.2351749,80.0111686 C27.9864406,81.0195019 42.8205754,81.5376178 57.8507877,81.5583425 C72.8491175,81.57827 88.0411335,81.1031975 98.5583765,80.1267483 L98.5615647,80.1259512 C104.235057,79.5958787 108.51927,75.0364584 108.526443,69.5221106 L108.547964,54.0886323 Z" id="Fill-1" sketch:type="MSShapeGroup"></path>
            </g>
        </g>
    </g>
</svg>