<?xml version="1.0" encoding="UTF-8" standalone="no"?>
<svg width="88px" height="65px" viewBox="0 0 88 65" version="1.1" xmlns="http://www.w3.org/2000/svg" xmlns:xlink="http://www.w3.org/1999/xlink" xmlns:sketch="http://www.bohemiancoding.com/sketch/ns">
    <!-- Generator: Sketch 3.5 (25232) - http://www.bohemiancoding.com/sketch -->
    <title>Group 12</title>
    <desc>Created with Sketch.</desc>
    <defs></defs>
    <g id="Page-1" stroke="none" stroke-width="1" fill="none" fill-rule="evenodd" sketch:type="MSPage">
        <g id="Desktop" sketch:type="MSArtboardGroup" transform="translate(-544.000000, -1270.000000)" stroke="#4095BF" stroke-width="4" stroke-linecap="round" stroke-linejoin="round">
            <g id="Group-15" sketch:type="MSLayerGroup" transform="translate(0.000000, 934.000000)">
                <g id="Group-12" transform="translate(546.000000, 338.640507)" sketch:type="MSShapeGroup">
                    <path d="M23.8770364,48.8950778 C23.8770364,55.0207935 18.6714571,59.9863131 12.2495915,59.9863131 C5.82772603,59.9863131 0.622146664,55.0207935 0.622146664,48.8950778 C0.622146664,42.7693621 5.82772603,37.8038425 12.2495915,37.8038425 C18.6714571,37.8038425 23.8770364,42.7693621 23.8770364,48.8950778 L23.8770364,48.8950778 Z" id="Stroke-1"></path>
                    <path d="M53.9357306,48.8950778 C53.9357306,55.0207935 48.7301513,59.9863131 42.3082858,59.9863131 C35.8864202,59.9863131 30.6808409,55.0207935 30.6808409,48.8950778 C30.6808409,42.7693621 35.8864202,37.8038425 42.3082858,37.8038425 C48.7301513,37.8038425 53.9357306,42.7693621 53.9357306,48.8950778 L53.9357306,48.8950778 Z" id="Stroke-3"></path>
                    <path d="M83.9944875,48.8950778 C83.9944875,55.0207935 78.7889082,59.9863131 72.3670427,59.9863131 C65.9451771,59.9863131 60.7395978,55.0207935 60.7395978,48.8950778 C60.7395978,42.7693621 65.9451771,37.8038425 72.3670427,37.8038425 C78.7889082,37.8038425 83.9944875,42.7693621 83.9944875,48.8950778 L83.9944875,48.8950778 Z" id="Stroke-5"></path>
                    <path d="M12.2495288,37.8038425 L12.2495288,32.5446856 C12.2495288,30.7069111 13.8118923,29.2165974 15.7385147,29.2165974 L68.8783076,29.2165974 C70.80493,29.2165974 72.3672934,30.7069111 72.3672934,32.5446856 L72.3672934,37.8038425" id="Stroke-7"></path>
                    <path d="M42,37.8038425 L42,20.9576758" id="Stroke-9"></path>
                    <path d="M61.623725,20.6905915 L22.9928465,20.6905915 C20.9113671,20.6905915 19.2242403,19.081268 19.2242403,17.0957778 L19.2242403,3.60162092 C19.2242403,1.61613072 20.9113671,0.00620915163 22.9928465,0.00620915163 L61.623725,0.00620915163 C63.7052044,0.00620915163 65.3923312,1.61613072 65.3923312,3.60162092 L65.3923312,17.0957778 C65.3923312,19.081268 63.7052044,20.6905915 61.623725,20.6905915 L61.623725,20.6905915 Z" id="Stroke-29"></path>
                </g>
            </g>
        </g>
    </g>
</svg>