<?xml version="1.0" encoding="UTF-8" standalone="no"?>
<svg width="83px" height="95px" viewBox="0 0 83 95" version="1.1" xmlns="http://www.w3.org/2000/svg" xmlns:xlink="http://www.w3.org/1999/xlink" xmlns:sketch="http://www.bohemiancoding.com/sketch/ns">
    <!-- Generator: Sketch 3.5 (25232) - http://www.bohemiancoding.com/sketch -->
    <title>Group</title>
    <desc>Created with Sketch.</desc>
    <defs></defs>
    <g id="Page-1" stroke="none" stroke-width="1" fill="none" fill-rule="evenodd" sketch:type="MSPage">
        <g id="Desktop" sketch:type="MSArtboardGroup" transform="translate(-137.000000, -653.000000)" fill="#12A6B4">
            <g id="Group" sketch:type="MSLayerGroup" transform="translate(137.000000, 653.000000)">
                <path d="M34.8380187,56.8060145 C40.0308825,56.8060145 44.2401709,52.5965217 44.2401709,47.4034058 L44.2401709,47.4034058 C44.2401709,42.2102899 40.0308825,38 34.8380187,38 L0,38 L0,56.8060145 L18.8051015,56.8060145 L34.8380187,56.8060145 Z" id="Fill-3" sketch:type="MSShapeGroup"></path>
                <path d="M34.8188892,0 L0,0 L0,19.0013043 L34.8380187,19.0013043 C50.4166101,19.0013043 63.0452724,31.6313768 63.0452724,47.2099275 L63.0452724,47.2107246 C63.0452724,62.7892754 50.4166101,75.4193478 34.8380187,75.4193478 L18.8051015,75.4193478 L18.8051015,94.0834783 L82.0464513,94.0834783 L82.0464513,47.2298551 C82.0464513,21.1455072 60.9019706,0 34.8188892,0" id="Fill-5" sketch:type="MSShapeGroup"></path>
            </g>
        </g>
    </g>
</svg>