<?xml version="1.0" encoding="UTF-8" standalone="no"?>
<svg width="67px" height="70px" viewBox="0 0 67 70" version="1.1" xmlns="http://www.w3.org/2000/svg" xmlns:xlink="http://www.w3.org/1999/xlink" xmlns:sketch="http://www.bohemiancoding.com/sketch/ns">
    <!-- Generator: Sketch 3.5 (25232) - http://www.bohemiancoding.com/sketch -->
    <title>Group 13</title>
    <desc>Created with Sketch.</desc>
    <defs></defs>
    <g id="Page-1" stroke="none" stroke-width="1" fill="none" fill-rule="evenodd" sketch:type="MSPage">
        <g id="Desktop" sketch:type="MSArtboardGroup" transform="translate(-557.000000, -1087.000000)" stroke="#4095BF" stroke-width="4" stroke-linecap="round" stroke-linejoin="round">
            <g id="Group-15" sketch:type="MSLayerGroup" transform="translate(0.000000, 934.000000)">
                <g id="Group-13" transform="translate(559.000000, 154.640507)" sketch:type="MSShapeGroup">
                    <path d="M31.164031,0.937299775 C31.164031,0.937299775 22.2798771,7.76182862 0.563129548,8.91355985 C0.563129548,8.91355985 -4.61891037,54.0322323 31.164031,65.6875316" id="Stroke-21"></path>
                    <path d="M31.164031,0.937299775 C31.164031,0.937299775 40.0481849,7.76182862 61.7649325,8.91355985 C61.7649325,8.91355985 66.9469724,54.0322323 31.164031,65.6875316" id="Stroke-23"></path>
                    <path d="M41.7444835,47.506062 L20.5834471,47.506062 C18.8992349,47.506062 17.5336041,46.2310624 17.5336041,44.6586242 L17.5336041,32.6427189 C17.5336041,31.0696675 18.8992349,29.7946679 20.5834471,29.7946679 L41.7444835,29.7946679 C43.4286958,29.7946679 44.7943265,31.0696675 44.7943265,32.6427189 L44.7943265,44.6586242 C44.7943265,46.2310624 43.4286958,47.506062 41.7444835,47.506062 L41.7444835,47.506062 Z" id="Stroke-25"></path>
                    <path d="M24.4191026,29.532554 L24.4191026,20.2843607 C24.4191026,16.6617428 27.5648484,13.7247668 31.4449739,13.7247668 L31.4449739,13.7247668 C35.3250994,13.7247668 38.4708452,16.6617428 38.4708452,20.2843607 L38.4708452,23.3243669" id="Stroke-27"></path>
                </g>
            </g>
        </g>
    </g>
</svg>