<?xml version="1.0" encoding="UTF-8" standalone="no"?>
<svg width="102px" height="109px" viewBox="0 0 102 109" version="1.1" xmlns="http://www.w3.org/2000/svg" xmlns:xlink="http://www.w3.org/1999/xlink" xmlns:sketch="http://www.bohemiancoding.com/sketch/ns">
    <!-- Generator: Sketch 3.5 (25232) - http://www.bohemiancoding.com/sketch -->
    <title>Group 10</title>
    <desc>Created with Sketch.</desc>
    <defs></defs>
    <g id="Page-1" stroke="none" stroke-width="1" fill="none" fill-rule="evenodd" sketch:type="MSPage">
        <g id="Desktop" sketch:type="MSArtboardGroup" transform="translate(-348.000000, -651.000000)" fill="#0D6AA8">
            <g id="Group-10" sketch:type="MSLayerGroup" transform="translate(348.000000, 651.000000)">
                <path d="M49.0595594,37 C42.3993031,37 37,42.4027536 37,49.0665217 C37,55.731087 42.3993031,61.1338406 49.0595594,61.1338406 C55.7198158,61.1338406 61.1191188,55.731087 61.1191188,49.0665217 C61.1191188,42.4027536 55.7198158,37 49.0595594,37" id="Fill-13-Copy-2" sketch:type="MSShapeGroup"></path>
                <path d="M49.3198518,81.6096377 C31.488761,81.6096377 17.034028,67.1542029 17.034028,49.3222464 C17.034028,31.4902899 31.488761,17.034058 49.3198518,17.034058 C67.1509426,17.034058 81.6056756,31.4902899 81.6056756,49.3222464 C81.6056756,53.491087 80.8070187,57.4710145 79.3683204,61.1297101 C84.7317557,63.3376812 90.0816409,65.5408696 94.745255,67.461087 C97.0216662,61.7992754 98.2770401,55.6169565 98.2770401,49.1405072 C98.2770401,22.0007971 76.276514,0 49.1381215,0 C21.999729,0 0,22.0007971 0,49.1405072 C0,76.2802174 21.999729,98.2810145 49.1381215,98.2810145 C51.0773752,98.2810145 52.9887316,98.1654348 54.8690027,97.947029 C54.3110587,93.2871739 53.6104406,87.4372464 52.8883017,81.4087681 C51.7158224,81.5378986 50.5266048,81.6096377 49.3198518,81.6096377" id="Fill-15-Copy-2" sketch:type="MSShapeGroup"></path>
                <path d="M60,65 L69.2244072,108.640507 C69.2244072,108.640507 72.8869105,102.572174 76.23298,97.0251449 C79.0490027,92.358913 81.6418478,88.0625362 81.6418478,88.0625362 C81.6418478,88.0625362 84.8667637,87.0255072 88.7181709,85.7876087 C94.4259372,83.9526812 101.510231,81.6753623 101.510231,81.6753623 L60,65 Z" id="Fill-17-Copy-2" sketch:type="MSShapeGroup"></path>
            </g>
        </g>
    </g>
</svg>