<?xml version="1.0" encoding="UTF-8" standalone="no"?>
<svg width="117px" height="11px" viewBox="0 0 117 11" version="1.1" xmlns="http://www.w3.org/2000/svg" xmlns:xlink="http://www.w3.org/1999/xlink" xmlns:sketch="http://www.bohemiancoding.com/sketch/ns">
    <!-- Generator: Sketch 3.5 (25232) - http://www.bohemiancoding.com/sketch -->
    <title>trendcapital</title>
    <desc>Created with Sketch.</desc>
    <defs></defs>
    <g id="Page-1" stroke="none" stroke-width="1" fill="none" fill-rule="evenodd" sketch:type="MSPage">
        <g id="Desktop" sketch:type="MSArtboardGroup" transform="translate(-88.000000, -57.000000)" fill="#22313F">
            <g id="trendcapital" sketch:type="MSLayerGroup" transform="translate(88.000000, 57.000000)">
                <path d="M0,0.77858 L0,2.51071333 L3.1955625,2.51071333 L3.1955625,10.8846467 L5.09608125,10.8846467 L5.09608125,2.51071333 L8.292375,2.51071333 L8.292375,0.77858 L0,0.77858 Z" id="Fill-1" sketch:type="MSShapeGroup"></path>
                <path d="M37.2215756,0.76406 L37.2215756,7.04359333 L32.2834444,0.778726667 L30.7434319,0.778726667 L30.7434319,10.8847933 L32.6439506,10.8847933 L32.6439506,4.06992667 L37.9418569,10.8987267 L37.9418569,10.8847933 L39.1213631,10.8847933 L39.1213631,0.76406 L37.2215756,0.76406 Z" id="Fill-2" sketch:type="MSShapeGroup"></path>
                <path d="M43.3375313,9.05050667 L45.410625,9.05050667 C47.6994375,9.05050667 48.6061875,7.37557333 48.563775,5.72997333 C48.5199,4.15624 47.598525,2.58324 45.410625,2.58324 L43.3375313,2.58324 L43.3375313,9.05050667 Z M50.4489375,5.74537333 C50.4928125,8.29957333 48.9374438,10.8845733 45.410625,10.8845733 L41.4509063,10.8845733 L41.4509063,0.778506667 L45.410625,0.778506667 C48.8657813,0.778506667 50.406525,3.24690667 50.4489375,5.74537333 L50.4489375,5.74537333 Z" id="Fill-3" sketch:type="MSShapeGroup"></path>
                <path d="M62.7451256,9.48398 C61.7374631,10.4945133 60.3985444,10.99978 59.0735194,10.99978 C55.6761319,10.99978 53.9057756,8.61791333 53.8911506,5.88918 C53.8626319,3.18978 55.6190944,0.662713333 59.0735194,0.662713333 C60.3985444,0.662713333 61.7374631,1.16798 62.7451256,2.17851333 L62.2120444,2.64051333 C61.3484381,1.77444667 60.2113444,1.35571333 59.0735194,1.35571333 C56.1375506,1.35571333 54.6260569,3.43471333 54.6399506,5.85984667 C54.6684694,8.22778 56.1660694,10.27818 59.0735194,10.27818 C60.2113444,10.27818 61.3630631,9.84478 62.2274006,8.99338 L62.7451256,9.48398 Z" id="Fill-5" sketch:type="MSShapeGroup"></path>
                <path d="M71.4379331,7.67902667 L68.7315769,1.52929333 L66.0252206,7.67902667 L71.4379331,7.67902667 Z M72.8492456,10.8844267 L71.7406706,8.40136 L65.7224831,8.40136 L64.6285331,10.8844267 L63.7934456,10.8844267 L68.3140331,0.77836 L69.1637456,0.77836 L73.6843331,10.8844267 L72.8492456,10.8844267 Z" id="Fill-8" sketch:type="MSShapeGroup"></path>
                <path d="M85.6856813,0.778066667 L86.4491063,0.778066667 L86.4491063,10.8841333 L85.6856813,10.8841333 L85.6856813,0.778066667 Z" id="Fill-10" sketch:type="MSShapeGroup"></path>
                <path d="M92.7099956,1.48566 L89.0683706,1.48566 L89.0683706,0.79266 L97.1296706,0.79266 L97.1296706,1.48566 L93.4880456,1.48566 L93.4880456,10.88406 L92.7099956,10.88406 L92.7099956,1.48566 Z" id="Fill-12" sketch:type="MSShapeGroup"></path>
                <path d="M105.923171,7.67902667 L103.216815,1.52929333 L100.510459,7.67902667 L105.923171,7.67902667 Z M107.334484,10.8844267 L106.225177,8.40136 L100.207721,8.40136 L99.1137712,10.8844267 L98.2786837,10.8844267 L102.799271,0.77836 L103.648984,0.77836 L108.169571,10.8844267 L107.334484,10.8844267 Z" id="Fill-13" sketch:type="MSShapeGroup"></path>
                <path d="M111.103419,0.77836 L111.103419,10.14816 L116.775726,10.14816 L116.775726,10.8844267 L110.326101,10.8844267 L110.326101,0.77836 L111.103419,0.77836 Z" id="Fill-14" sketch:type="MSShapeGroup"></path>
                <path d="M28.11159,2.62636 L28.11159,0.77836 L20.568015,0.77836 L20.568015,10.8844267 L20.568015,10.89836 L28.11159,10.89836 L28.11159,9.05036 L22.4685337,9.05036 L22.4685337,6.75502667 L28.11159,6.75502667 L28.11159,4.90776 L22.4685337,4.90776 L22.4685337,2.62636 L28.11159,2.62636 Z" id="Fill-15" sketch:type="MSShapeGroup"></path>
                <path d="M79.9585313,0.77836 L75.5388563,0.77836 L75.5388563,1.49996 L79.9585313,1.49996 C83.312775,1.49996 83.312775,6.68316 79.9585313,6.68316 L75.5388563,6.68316 L75.5388563,10.8844267 L76.316175,10.8844267 L76.316175,7.39082667 L79.9585313,7.39082667 C84.3350625,7.39082667 84.3350625,0.77836 79.9585313,0.77836" id="Fill-16" sketch:type="MSShapeGroup"></path>
                <path d="M16.0496213,7.30407333 C17.9640338,6.91394 18.5980275,5.51400667 18.5980275,4.12727333 C18.5980275,2.38047333 17.344665,0.792806667 14.9702963,0.77814 C13.3717838,0.77814 11.8822275,0.764206667 10.2844463,0.764206667 L10.2844463,2.55427333 L14.9702963,2.55427333 C16.1651588,2.55427333 16.6975088,3.36240667 16.6975088,4.17127333 C16.6975088,4.97940667 16.1790525,5.78827333 14.9702963,5.78827333 L10.2844463,5.78827333 L10.2844463,10.8842067 L12.1842338,10.8842067 L12.1842338,7.50647333 L13.904865,7.50647333 L16.8408338,10.8842067 L19.1018588,10.8842067 L19.1018588,10.7544067 L16.0496213,7.30407333 Z" id="Fill-17" sketch:type="MSShapeGroup"></path>
            </g>
        </g>
    </g>
</svg>