<?xml version="1.0" encoding="UTF-8" standalone="no"?>
<svg width="109px" height="82px" viewBox="0 0 109 82" version="1.1" xmlns="http://www.w3.org/2000/svg" xmlns:xlink="http://www.w3.org/1999/xlink" xmlns:sketch="http://www.bohemiancoding.com/sketch/ns">
    <!-- Generator: Sketch 3.5 (25232) - http://www.bohemiancoding.com/sketch -->
    <title>Group 22</title>
    <desc>Created with Sketch.</desc>
    <defs></defs>
    <g id="Page-1" stroke="none" stroke-width="1" fill="none" fill-rule="evenodd" sketch:type="MSPage">
        <g id="Desktop" sketch:type="MSArtboardGroup" transform="translate(-556.000000, -662.000000)" fill="#BB3C55">
            <g id="Group-22" sketch:type="MSLayerGroup" transform="translate(556.000000, 662.000000)">
                <path d="M33.5304032,41.2181884 L61.5192617,41.2181884 L59.1041615,35.4726812 C56.1685794,28.4900725 49.6884593,24 42.5443858,24 L9,24 C13.3607303,34.3726812 22.934251,41.0683333 33.5248238,41.2054348 L33.5304032,41.2181884 Z" id="Fill-7" sketch:type="MSShapeGroup"></path>
                <path d="M24.5304032,17.2181884 L52.5192617,17.2181884 L50.1049586,11.4734783 C47.1685794,4.49007246 40.6884593,0 33.5443858,0 L0,0 C4.36073031,10.3726812 13.934251,17.0691304 24.5248238,17.2054348 L24.5304032,17.2181884 Z" id="Fill-9" sketch:type="MSShapeGroup"></path>
                <path d="M83.3636142,0 C83.3636142,0.000797101449 83.3636142,0.000797101449 83.3628171,0.000797101449 C88.1133111,10.9880435 88.4074272,23.5862319 83.755769,34.6157246 L72.0740174,62.3173913 C71.8046101,62.9566667 70.9573324,62.9558696 70.6887223,62.3165942 L69.1041615,58.5471014 C66.1685794,51.5644928 59.6884593,47.0744203 52.5443858,47.0744203 L19,47.0744203 C23.3607303,57.4471014 32.934251,64.1435507 43.5256208,64.2798551 L45.7526142,69.5797826 C48.2314793,75.475942 53.131024,79.9436957 59.0563885,81.156087 C67.5251802,82.8889855 75.7229706,78.1358696 79.1423698,70.0181884 L108.632895,0 L83.3636142,0 Z" id="Fill-11" sketch:type="MSShapeGroup"></path>
            </g>
        </g>
    </g>
</svg>